<?xml version="1.0" encoding="UTF-8"?>
<svg id="SVGDoc" width="117" height="22" xmlns="http://www.w3.org/2000/svg" version="1.1" xmlns:xlink="http://www.w3.org/1999/xlink" xmlns:avocode="https://avocode.com/" viewBox="0 0 117 22"><defs></defs><desc>Generated with Avocode.</desc><g><g><title>logo zonex</title><path d="M0.99995,0.99978h16.99997l-9.99996,17.00001h8.99998v4.00017h-16.99997l9.99996,-16.00002h-8.99998zM32.99992,21.99996c-6.0751,0 -10.99995,-4.92496 -10.99995,-11.00008c0,-0.66613 0.06912,-1.31527 0.18253,-1.94879l5.72628,5.09008c1.05721,1.7096 2.93335,2.85863 5.09113,2.85863c3.31375,0 6.00002,-2.68626 6.00002,-5.99992c0,-3.31366 -2.68627,-5.99992 -6.00002,-5.99992c-2.24361,0 -4.17641,1.24596 -5.2058,3.06995l-3.82244,-3.34469c1.98727,-2.85387 5.28717,-4.72542 9.02824,-4.72542c6.0751,0 11.00006,4.92496 11.00006,11.00008c0,6.07512 -4.92496,11.00008 -11.00006,11.00008zM49.99989,21.99996v-10.0001l5.00004,2.99996v7.00014zM49.99989,-0.00021l14.00002,11.00008v-11.00008h5.00004v22.00017l-19.00005,-16.00002zM90.99995,3.99996h-9.99996v4.99994h8.99998v3.99995h-8.99998v4.99994h9.99996v4.00017h-15v-22.00017h15zM116.9999,21.99973h-6.00002l-5.00004,-6.87488l-4.99992,6.87488h-6.00002l7.99999,-10.99986l-7.99999,-11.00008h6.00002l4.99992,6.87511l5.00004,-6.87511h6.00002l-7.99999,11.00008z" fill="#151515" fill-opacity="1"></path></g></g></svg>